<svg height="140" viewBox="0 0 740 1009" fill="none" xmlns="http://www.w3.org/2000/svg">
<path d="M237.573 967.645C235.023 969.991 232.116 971.674 228.852 972.694C225.588 973.714 221.916 974.224 217.836 974.224C212.736 974.224 208.146 973.357 204.066 971.623C200.088 969.889 196.722 967.39 193.968 964.126C191.214 960.862 189.072 956.986 187.542 952.498C186.114 947.908 185.4 942.757 185.4 937.045C185.4 931.741 186.114 926.845 187.542 922.357C188.97 917.869 191.061 913.993 193.815 910.729C196.569 907.363 199.935 904.762 203.913 902.926C207.891 901.09 212.481 900.172 217.683 900.172C221.967 900.172 225.894 900.937 229.464 902.467C233.034 903.895 235.992 905.935 238.338 908.587L239.409 901.09H245.529V1008.19H237.573V967.645ZM237.573 915.319C235.737 913.075 233.289 911.086 230.229 909.352C227.271 907.516 223.497 906.598 218.907 906.598C215.439 906.598 212.175 907.21 209.115 908.434C206.055 909.556 203.352 911.341 201.006 913.789C198.762 916.237 196.977 919.348 195.651 923.122C194.325 926.896 193.662 931.384 193.662 936.586C193.662 947.194 196.008 955.048 200.7 960.148C205.494 965.248 211.818 967.798 219.672 967.798C223.752 967.798 227.322 967.033 230.382 965.503C233.442 963.871 235.839 961.984 237.573 959.842V915.319ZM317.538 901.09H325.494V973H319.833L318.609 963.973H318.303C315.855 966.625 312.591 969.022 308.511 971.164C304.431 973.204 299.637 974.224 294.129 974.224C286.683 974.224 280.665 972.235 276.075 968.257C271.587 964.177 269.343 957.853 269.343 949.285V901.09H277.299V947.602C277.299 951.58 277.758 954.895 278.676 957.547C279.594 960.097 280.869 962.137 282.501 963.667C284.133 965.197 286.071 966.268 288.315 966.88C290.661 967.492 293.16 967.798 295.812 967.798C300.402 967.798 304.635 966.727 308.511 964.585C312.489 962.443 315.498 959.893 317.538 956.935V901.09ZM402.997 937.045H351.742V939.187C351.742 948.163 354.139 955.201 358.933 960.301C363.829 965.299 370.459 967.798 378.823 967.798C385.453 967.798 391.675 966.676 397.489 964.432L399.325 970.552C396.673 971.674 393.46 972.541 389.686 973.153C386.014 973.867 382.24 974.224 378.364 974.224C373.57 974.224 369.031 973.51 364.747 972.082C360.565 970.654 356.893 968.461 353.731 965.503C350.569 962.443 348.07 958.618 346.234 954.028C344.398 949.336 343.48 943.726 343.48 937.198C343.48 931.588 344.245 926.488 345.775 921.898C347.305 917.308 349.498 913.432 352.354 910.27C355.21 907.006 358.576 904.507 362.452 902.773C366.328 901.039 370.663 900.172 375.457 900.172C379.537 900.172 383.26 900.937 386.626 902.467C390.094 903.895 393.001 905.986 395.347 908.74C397.795 911.494 399.682 914.809 401.008 918.685C402.334 922.561 402.997 926.845 402.997 931.537V937.045ZM394.735 930.619C394.735 927.661 394.378 924.754 393.664 921.898C392.95 918.94 391.777 916.339 390.145 914.095C388.615 911.851 386.575 910.066 384.025 908.74C381.577 907.312 378.568 906.598 374.998 906.598C368.776 906.598 363.574 908.689 359.392 912.871C355.312 917.053 352.864 922.969 352.048 930.619H394.735ZM469.194 901.09H477.15V973H471.489L470.265 963.973H469.959C467.511 966.625 464.247 969.022 460.167 971.164C456.087 973.204 451.293 974.224 445.785 974.224C438.339 974.224 432.321 972.235 427.731 968.257C423.243 964.177 420.999 957.853 420.999 949.285V901.09H428.955V947.602C428.955 951.58 429.414 954.895 430.332 957.547C431.25 960.097 432.525 962.137 434.157 963.667C435.789 965.197 437.727 966.268 439.971 966.88C442.317 967.492 444.816 967.798 447.468 967.798C452.058 967.798 456.291 966.727 460.167 964.585C464.145 962.443 467.154 959.893 469.194 956.935V901.09ZM554.652 937.045H503.397V939.187C503.397 948.163 505.794 955.201 510.588 960.301C515.484 965.299 522.114 967.798 530.478 967.798C537.108 967.798 543.33 966.676 549.144 964.432L550.98 970.552C548.328 971.674 545.115 972.541 541.341 973.153C537.669 973.867 533.895 974.224 530.019 974.224C525.225 974.224 520.686 973.51 516.402 972.082C512.22 970.654 508.548 968.461 505.386 965.503C502.224 962.443 499.725 958.618 497.889 954.028C496.053 949.336 495.135 943.726 495.135 937.198C495.135 931.588 495.9 926.488 497.43 921.898C498.96 917.308 501.153 913.432 504.009 910.27C506.865 907.006 510.231 904.507 514.107 902.773C517.983 901.039 522.318 900.172 527.112 900.172C531.192 900.172 534.915 900.937 538.281 902.467C541.749 903.895 544.656 905.986 547.002 908.74C549.45 911.494 551.337 914.809 552.663 918.685C553.989 922.561 554.652 926.845 554.652 931.537V937.045ZM546.39 930.619C546.39 927.661 546.033 924.754 545.319 921.898C544.605 918.94 543.432 916.339 541.8 914.095C540.27 911.851 538.23 910.066 535.68 908.74C533.232 907.312 530.223 906.598 526.653 906.598C520.431 906.598 515.229 908.689 511.047 912.871C506.967 917.053 504.519 922.969 503.703 930.619H546.39Z" fill="#777777"/>
<path d="M0 370C0 70 173 0 370 0C567 0 740 70 740 370C740 670 567 740 370 740C173 740 0 670 0 370Z" fill="#FAFA00"/>
<path d="M413.6 545.2C412.2 538.2 411.267 532.367 410.8 527.7C410.8 522.567 410.567 516.733 410.1 510.2C394.233 526.067 377.2 537.733 359 545.2C341.267 552.667 322.833 556.4 303.7 556.4C271.967 556.4 247.467 547.767 230.2 530.5C213.4 513.233 205 492 205 466.8C205 444.4 211.067 425.5 223.2 410.1C235.333 394.233 251.2 381.4 270.8 371.6C290.4 361.333 312.1 353.633 335.9 348.5C359.7 342.9 383.267 339.867 406.6 339.4V300.9C406.6 287.367 404.967 275 401.7 263.8C398.9 252.133 393.533 243.033 385.6 236.5C377.667 229.5 366 226 350.6 226C340.333 226.467 329.833 228.8 319.1 233C308.833 236.733 300.667 242.8 294.6 251.2C298.333 255.4 300.667 260.067 301.6 265.2C302.533 269.867 303 274.067 303 277.8C303 286.2 299.733 295.067 293.2 304.4C286.667 313.267 276.167 317.467 261.7 317C249.1 316.533 239.3 312.1 232.3 303.7C225.767 295.3 222.5 285.267 222.5 273.6C222.5 255.867 228.8 240.467 241.4 227.4C254.467 213.867 271.967 203.367 293.9 195.9C315.833 187.967 340.333 184 367.4 184C407.533 184 438.333 194.5 459.8 215.5C481.267 236.5 491.767 270.1 491.3 316.3C491.3 332.633 491.3 347.567 491.3 361.1C491.3 374.167 491.067 387.467 490.6 401C490.6 414.067 490.6 428.767 490.6 445.1C490.6 452.1 490.367 460.967 489.9 471.7C489.433 481.967 488.733 492.233 487.8 502.5C496.2 501.567 504.6 501.1 513 501.1C521.867 500.633 529.1 500.167 534.7 499.7V545.2H413.6ZM405.9 380.7C391.9 381.633 378.133 383.967 364.6 387.7C351.067 390.967 338.933 395.633 328.2 401.7C317.467 407.767 308.833 415.467 302.3 424.8C296.233 433.667 293.433 443.933 293.9 455.6C294.367 470.067 299.033 480.8 307.9 487.8C316.767 494.333 327.033 497.6 338.7 497.6C352.233 497.6 364.367 494.8 375.1 489.2C386.3 483.6 396.567 476.133 405.9 466.8C405.9 462.133 405.9 457.233 405.9 452.1C405.9 446.967 405.9 441.833 405.9 436.7C405.9 430.167 405.9 422 405.9 412.2C405.9 402.4 405.9 391.9 405.9 380.7Z" fill="white"/>
</svg>
