<svg height="140" viewBox="0 0 740 1009" fill="none" xmlns="http://www.w3.org/2000/svg">
<path d="M237.573 967.645C235.023 969.991 232.116 971.674 228.852 972.694C225.588 973.714 221.916 974.224 217.836 974.224C212.736 974.224 208.146 973.357 204.066 971.623C200.088 969.889 196.722 967.39 193.968 964.126C191.214 960.862 189.072 956.986 187.542 952.498C186.114 947.908 185.4 942.757 185.4 937.045C185.4 931.741 186.114 926.845 187.542 922.357C188.97 917.869 191.061 913.993 193.815 910.729C196.569 907.363 199.935 904.762 203.913 902.926C207.891 901.09 212.481 900.172 217.683 900.172C221.967 900.172 225.894 900.937 229.464 902.467C233.034 903.895 235.992 905.935 238.338 908.587L239.409 901.09H245.529V1008.19H237.573V967.645ZM237.573 915.319C235.737 913.075 233.289 911.086 230.229 909.352C227.271 907.516 223.497 906.598 218.907 906.598C215.439 906.598 212.175 907.21 209.115 908.434C206.055 909.556 203.352 911.341 201.006 913.789C198.762 916.237 196.977 919.348 195.651 923.122C194.325 926.896 193.662 931.384 193.662 936.586C193.662 947.194 196.008 955.048 200.7 960.148C205.494 965.248 211.818 967.798 219.672 967.798C223.752 967.798 227.322 967.033 230.382 965.503C233.442 963.871 235.839 961.984 237.573 959.842V915.319ZM317.538 901.09H325.494V973H319.833L318.609 963.973H318.303C315.855 966.625 312.591 969.022 308.511 971.164C304.431 973.204 299.637 974.224 294.129 974.224C286.683 974.224 280.665 972.235 276.075 968.257C271.587 964.177 269.343 957.853 269.343 949.285V901.09H277.299V947.602C277.299 951.58 277.758 954.895 278.676 957.547C279.594 960.097 280.869 962.137 282.501 963.667C284.133 965.197 286.071 966.268 288.315 966.88C290.661 967.492 293.16 967.798 295.812 967.798C300.402 967.798 304.635 966.727 308.511 964.585C312.489 962.443 315.498 959.893 317.538 956.935V901.09ZM402.997 937.045H351.742V939.187C351.742 948.163 354.139 955.201 358.933 960.301C363.829 965.299 370.459 967.798 378.823 967.798C385.453 967.798 391.675 966.676 397.489 964.432L399.325 970.552C396.673 971.674 393.46 972.541 389.686 973.153C386.014 973.867 382.24 974.224 378.364 974.224C373.57 974.224 369.031 973.51 364.747 972.082C360.565 970.654 356.893 968.461 353.731 965.503C350.569 962.443 348.07 958.618 346.234 954.028C344.398 949.336 343.48 943.726 343.48 937.198C343.48 931.588 344.245 926.488 345.775 921.898C347.305 917.308 349.498 913.432 352.354 910.27C355.21 907.006 358.576 904.507 362.452 902.773C366.328 901.039 370.663 900.172 375.457 900.172C379.537 900.172 383.26 900.937 386.626 902.467C390.094 903.895 393.001 905.986 395.347 908.74C397.795 911.494 399.682 914.809 401.008 918.685C402.334 922.561 402.997 926.845 402.997 931.537V937.045ZM394.735 930.619C394.735 927.661 394.378 924.754 393.664 921.898C392.95 918.94 391.777 916.339 390.145 914.095C388.615 911.851 386.575 910.066 384.025 908.74C381.577 907.312 378.568 906.598 374.998 906.598C368.776 906.598 363.574 908.689 359.392 912.871C355.312 917.053 352.864 922.969 352.048 930.619H394.735ZM469.194 901.09H477.15V973H471.489L470.265 963.973H469.959C467.511 966.625 464.247 969.022 460.167 971.164C456.087 973.204 451.293 974.224 445.785 974.224C438.339 974.224 432.321 972.235 427.731 968.257C423.243 964.177 420.999 957.853 420.999 949.285V901.09H428.955V947.602C428.955 951.58 429.414 954.895 430.332 957.547C431.25 960.097 432.525 962.137 434.157 963.667C435.789 965.197 437.727 966.268 439.971 966.88C442.317 967.492 444.816 967.798 447.468 967.798C452.058 967.798 456.291 966.727 460.167 964.585C464.145 962.443 467.154 959.893 469.194 956.935V901.09ZM554.652 937.045H503.397V939.187C503.397 948.163 505.794 955.201 510.588 960.301C515.484 965.299 522.114 967.798 530.478 967.798C537.108 967.798 543.33 966.676 549.144 964.432L550.98 970.552C548.328 971.674 545.115 972.541 541.341 973.153C537.669 973.867 533.895 974.224 530.019 974.224C525.225 974.224 520.686 973.51 516.402 972.082C512.22 970.654 508.548 968.461 505.386 965.503C502.224 962.443 499.725 958.618 497.889 954.028C496.053 949.336 495.135 943.726 495.135 937.198C495.135 931.588 495.9 926.488 497.43 921.898C498.96 917.308 501.153 913.432 504.009 910.27C506.865 907.006 510.231 904.507 514.107 902.773C517.983 901.039 522.318 900.172 527.112 900.172C531.192 900.172 534.915 900.937 538.281 902.467C541.749 903.895 544.656 905.986 547.002 908.74C549.45 911.494 551.337 914.809 552.663 918.685C553.989 922.561 554.652 926.845 554.652 931.537V937.045ZM546.39 930.619C546.39 927.661 546.033 924.754 545.319 921.898C544.605 918.94 543.432 916.339 541.8 914.095C540.27 911.851 538.23 910.066 535.68 908.74C533.232 907.312 530.223 906.598 526.653 906.598C520.431 906.598 515.229 908.689 511.047 912.871C506.967 917.053 504.519 922.969 503.703 930.619H546.39Z" fill="#777777"/>
<path d="M0 370C0 70 173 0 370 0C567 0 740 70 740 370C740 670 567 740 370 740C173 740 0 670 0 370Z" fill="#FAFA00"/>
<path d="M446.379 493.768V303.387C446.379 288.803 443.417 276.157 437.492 265.447C431.796 254.51 423.137 246.079 411.516 240.154C399.895 234.23 385.539 231.268 368.449 231.268C352.499 231.268 338.485 234.002 326.408 239.471C314.559 244.939 305.217 252.117 298.381 261.004C291.773 269.891 288.469 279.461 288.469 289.715H225.236C225.236 276.499 228.654 263.396 235.49 250.408C242.326 237.42 252.124 225.685 264.885 215.203C277.873 204.493 293.368 196.062 311.369 189.91C329.598 183.53 349.878 180.34 372.209 180.34C399.097 180.34 422.795 184.897 443.303 194.012C464.038 203.126 480.217 216.912 491.838 235.369C503.687 253.598 509.611 276.499 509.611 304.07V476.336C509.611 488.641 510.637 501.743 512.688 515.643C514.966 529.542 518.27 541.505 522.6 551.531L525 557H456.633C453.443 549.708 450.936 540.024 449.113 527.947C447.29 515.643 446.379 504.249 446.379 493.768ZM457.316 332.781L458 377.215H394.084C376.083 377.215 360.018 378.696 345.891 381.658C331.763 384.393 319.914 388.608 310.344 394.305C300.773 400.001 293.482 407.179 288.469 415.838C283.456 424.269 280.949 434.181 280.949 445.574C280.949 457.195 283.57 467.791 288.811 477.361C294.051 486.932 301.913 494.565 312.395 500.262C323.104 505.73 336.206 508.465 351.701 508.465C371.07 508.465 388.16 504.363 402.971 496.16C417.782 487.957 429.517 477.931 438.176 466.082C447.062 454.233 451.848 442.726 452.531 431.561L479.533 461.98C477.938 471.551 473.609 482.146 466.545 493.768C459.481 505.389 450.025 516.554 438.176 527.264C426.555 537.745 412.655 546.518 396.477 553.582C380.526 560.418 362.525 563.836 342.473 563.836C317.408 563.836 295.419 558.937 276.506 549.139C257.821 539.34 243.238 526.238 232.756 509.832C222.502 493.198 217.375 474.627 217.375 454.119C217.375 434.295 221.249 416.863 228.996 401.824C236.743 386.557 247.909 373.911 262.492 363.885C277.076 353.631 294.621 345.883 315.129 340.643C335.637 335.402 358.537 332.781 383.83 332.781H457.316Z" fill="white"/>
</svg>
